<?xml version="1.0" encoding="UTF-8"?>
<svg id="Calque_2" xmlns="http://www.w3.org/2000/svg" viewBox="0 0 57.45 45.34">
  <defs>
    <style>
      .cls-1 {
        fill: #1e929b;
      }
    </style>
  </defs>
  <g id="Calque_1-2" data-name="Calque_1">
    <g>
      <g>
        <path class="cls-1" d="M34.78,36.34c-1.27,0-2.3-1.03-2.3-2.3s1.03-2.3,2.3-2.3c5,0,9.07-4.07,9.07-9.07s-4.07-9.07-9.07-9.07c-1.27,0-2.3-1.03-2.3-2.3s1.03-2.3,2.3-2.3c7.54,0,13.67,6.13,13.67,13.67s-6.13,13.67-13.67,13.67Z"/>
        <path class="cls-1" d="M34.78,0C24.36,0,15.56,7.07,12.93,16.67h4.83c2.48-7.02,9.17-12.07,17.02-12.07,9.96,0,18.07,8.11,18.07,18.07s-8.11,18.07-18.07,18.07c-7.86,0-14.54-5.05-17.02-12.07h-4.83c2.64,9.6,11.43,16.67,21.86,16.67,12.5,0,22.67-10.17,22.67-22.67S47.28,0,34.78,0Z"/>
      </g>
      <path class="cls-1" d="M35.31,24.97H3.15c-1.27,0-2.3-1.03-2.3-2.3s1.03-2.3,2.3-2.3h32.17c1.27,0,2.3,1.03,2.3,2.3s-1.03,2.3-2.3,2.3Z"/>
      <path class="cls-1" d="M32.45,29.74c-.59,0-1.18-.22-1.63-.67-.9-.9-.9-2.35,0-3.25l3.11-3.11-3.19-3.19c-.9-.9-.9-2.35,0-3.25.9-.9,2.35-.9,3.25,0l4.81,4.81c.9.9.9,2.35,0,3.25l-4.74,4.74c-.45.45-1.04.67-1.63.67Z"/>
      <path class="cls-1" d="M12.55,21.11l-6.01-6.01H0l7.57,7.57L0,30.24h6.54l6.01-6.02c.86-.86.86-2.25,0-3.12Z"/>
    </g>
  </g>
</svg>