<?xml version="1.0" encoding="UTF-8"?>
<svg id="Calque_2" xmlns="http://www.w3.org/2000/svg" viewBox="0 0 71.61 45.34">
  <defs>
    <style>
      .cls-1 {
        fill: #6f6fad;
      }
    </style>
  </defs>
  <g id="Calque_1-2" data-name="Calque_1">
    <g>
      <path class="cls-1" d="M9.46,40.62h-.01c-.75,0-1.45-.38-1.88-1L0,28.63l5.95.09,3.54,5.58,6.6-9.34h5.63l-10.38,14.69c-.43.61-1.13.97-1.88.97Z"/>
      <path class="cls-1" d="M46.6,45.34h-27.12c-1.27,0-2.3-1.03-2.3-2.3,0-8.11,7.11-14.7,15.86-14.7s15.86,6.59,15.86,14.7c0,1.27-1.03,2.3-2.3,2.3ZM22.08,40.74h21.93c-1.16-4.47-5.64-7.8-10.96-7.8s-9.8,3.34-10.96,7.8Z"/>
      <g>
        <path class="cls-1" d="M46.2,20.44c-.33,1.62-.96,3.13-1.82,4.48,5.25.08,9.63,3.38,10.78,7.8h-5.95c1.02,1.41,1.82,2.95,2.4,4.6h6.14c1.27,0,2.3-1.03,2.3-2.3,0-7.48-6.06-13.66-13.86-14.57Z"/>
        <path class="cls-1" d="M33.05,27.48c-5.36,0-9.73-4.36-9.73-9.73s4.36-9.73,9.73-9.73,9.73,4.36,9.73,9.73-4.36,9.73-9.73,9.73ZM33.05,12.63c-2.83,0-5.13,2.3-5.13,5.13s2.3,5.13,5.13,5.13,5.13-2.3,5.13-5.13-2.3-5.13-5.13-5.13Z"/>
      </g>
      <path class="cls-1" d="M44.2,0c-3.5,0-6.57,1.87-8.28,4.65,1.57.35,3.04.97,4.36,1.82.94-1.13,2.34-1.86,3.92-1.86,2.83,0,5.13,2.3,5.13,5.13,0,2.17-1.36,4.02-3.28,4.77.26,1.05.42,2.14.42,3.26,0,.49-.03.97-.08,1.44,4.31-1,7.54-4.86,7.54-9.47,0-5.36-4.36-9.73-9.73-9.73Z"/>
      <g>
        <rect class="cls-1" x="61.15" y="8.86" width="4.6" height="16.32"/>
        <rect class="cls-1" x="55.29" y="14.72" width="16.32" height="4.6"/>
      </g>
    </g>
  </g>
</svg>