<?xml version="1.0" encoding="UTF-8"?>
<svg id="Calque_2" xmlns="http://www.w3.org/2000/svg" viewBox="0 0 48.19 45.34">
  <defs>
    <style>
      .cls-1 {
        fill: #c4d87d;
      }
    </style>
  </defs>
  <g id="Calque_1-2" data-name="Calque_1">
    <g>
      <rect class="cls-1" width="4.6" height="45.34"/>
      <rect class="cls-1" x="8.41" width="4.6" height="45.34"/>
      <path class="cls-1" d="M45.89,30.42h-27.23c-1.27,0-2.3-1.03-2.3-2.3s1.03-2.3,2.3-2.3h22.03l-5.98-6.58c-.8-.88-.8-2.23.01-3.1l5.92-6.44h-21.99c-1.27,0-2.3-1.03-2.3-2.3s1.03-2.3,2.3-2.3h27.23c.91,0,1.74.54,2.11,1.38.37.84.21,1.81-.41,2.48l-8.05,8.75,8.06,8.87c.61.67.77,1.64.4,2.48-.37.83-1.19,1.37-2.1,1.37Z"/>
    </g>
  </g>
</svg>