<svg width="317" height="89" viewBox="0 0 317 89" fill="none" xmlns="http://www.w3.org/2000/svg">
<path d="M89.3779 57.4466C90.0018 54.9512 91.2495 53.0796 92.9964 52.0814C94.9927 53.5787 97.8625 55.3255 102.978 55.3255C107.595 55.3255 109.217 53.5787 109.217 51.4575C109.217 49.2116 107.345 47.9639 101.481 47.0904C95.7414 46.217 90.2513 44.0959 90.2513 37.2334C90.2513 31.1195 95.7414 27.002 103.976 27.002C109.841 27.002 114.083 28.624 116.204 30.1213C115.83 32.492 114.832 34.4883 113.21 35.7361C110.964 34.4883 107.595 33.2406 103.602 33.2406C99.4846 33.2406 97.7377 34.4883 97.7377 36.6095C97.7377 38.7306 99.235 39.7288 104.725 40.727C111.837 41.85 116.953 44.2207 116.953 50.7089C116.953 57.5714 111.712 61.6889 102.729 61.6889C95.6166 61.5641 91.2495 59.0687 89.3779 57.4466Z" fill="white"/>
<path d="M148.396 57.9456C146.399 59.6924 143.155 61.4392 138.663 61.4392C131.676 61.4392 126.436 58.3199 126.436 50.4592V34.7377H120.821C120.571 33.7396 120.571 32.6166 120.571 31.4936C120.571 30.4954 120.696 29.3725 120.821 28.3743H126.436V19.7649C127.683 19.5154 129.056 19.3906 130.304 19.3906C131.551 19.3906 132.799 19.5154 134.047 19.7649V28.3743H146.275C146.524 29.3725 146.649 30.4954 146.649 31.4936C146.649 32.6166 146.524 33.6148 146.275 34.7377H134.047V48.7123C134.047 53.5785 136.293 54.8262 139.537 54.8262C141.908 54.8262 143.904 53.5785 145.027 52.5803C146.774 53.5785 148.146 55.8244 148.396 57.9456Z" fill="white"/>
<path d="M174.1 28.0001C174.1 30.4956 173.351 32.9911 171.978 34.7379C170.356 34.3636 168.734 34.114 166.988 34.114C164.492 34.114 162.371 34.6131 160.874 35.3618V60.4412C159.626 60.6907 158.253 60.8155 157.006 60.8155C155.758 60.8155 154.385 60.6907 153.138 60.4412V31.6186C155.633 29.3726 160.624 27.002 166.863 27.002C169.733 27.002 172.103 27.2515 174.1 28.0001Z" fill="white"/>
<path d="M205.542 40.4775V58.32C201.674 60.1916 195.935 61.5641 190.445 61.5641C180.837 61.5641 176.096 57.4466 176.096 50.9584C176.096 44.2207 181.96 40.6022 189.821 40.6022C192.94 40.6022 195.56 40.9766 197.806 41.85V39.9784C197.806 36.1104 195.186 33.7397 189.946 33.7397C186.078 33.7397 182.709 35.237 180.837 36.6095C178.965 35.6113 177.593 33.8645 177.219 31.6186C179.09 29.747 184.081 27.002 190.445 27.002C199.179 27.002 205.542 30.8699 205.542 40.4775ZM191.068 55.575C193.564 55.575 195.81 55.2007 197.806 54.5768V47.5895C195.685 46.7161 193.19 46.3418 190.32 46.3418C186.452 46.3418 183.832 47.5895 183.832 50.7089C183.956 53.5787 186.327 55.575 191.068 55.575Z" fill="white"/>
<path d="M243.224 28.6239C239.106 49.2115 232.119 63.0613 218.768 74.9148C216.273 74.1661 214.526 72.045 213.777 69.7991C217.271 66.4302 220.39 63.0613 222.636 59.6924C216.273 49.3363 212.779 39.6039 210.034 28.4991C211.282 28.1248 213.403 27.7505 215.399 27.7505C216.398 27.7505 217.521 27.8753 218.519 28C220.266 36.3598 222.886 44.2206 226.754 52.206C227.003 52.7051 227.128 53.2042 227.253 53.5786C227.502 53.0795 227.627 52.5804 227.752 52.206C231.495 44.5949 233.492 36.3598 235.238 28C236.237 27.8753 237.36 27.7505 238.358 27.7505C239.98 27.7505 241.851 28.1248 243.224 28.6239Z" fill="white"/>
<path d="M278.535 15.2732V58.32C275.166 60.0669 269.676 61.5641 264.435 61.5641C253.705 61.5641 246.468 55.4502 246.468 44.4702C246.468 33.7397 254.453 27.1267 264.186 27.1267C266.931 27.1267 269.052 27.501 270.799 28.1249V15.2732C272.046 15.0237 273.294 14.8989 274.667 14.8989C275.79 15.0237 277.162 15.0237 278.535 15.2732ZM270.799 53.7034V35.3617C268.927 34.2388 266.806 33.8645 264.435 33.8645C258.696 33.8645 254.328 37.982 254.328 44.2206C254.328 50.5841 258.446 54.5768 264.31 54.5768C266.556 54.8264 268.677 54.4521 270.799 53.7034Z" fill="white"/>
<path d="M316.465 46.3418H293.382C294.006 51.7071 297.25 54.9512 302.74 54.9512C307.481 54.9512 310.226 53.0796 312.348 51.5823C314.094 52.7052 315.467 54.8264 315.716 56.8228C312.971 59.0687 308.729 61.4394 302.116 61.4394C292.384 61.4394 285.396 54.9512 285.396 44.3454C285.396 34.2388 292.509 27.002 301.742 27.002C310.476 27.002 316.715 32.9911 316.715 41.7252C316.715 43.472 316.59 44.595 316.465 46.3418ZM309.103 41.2261C309.103 37.3581 307.107 33.4902 301.867 33.3654C297 33.3654 294.131 36.7343 293.507 41.2261H309.103Z" fill="white"/>
<path d="M22.9993 48.7125C22.8745 48.7125 22.7498 48.7125 22.625 48.7125C15.0138 48.0886 9.14947 41.85 9.14947 34.114C9.14947 31.1194 10.0229 28.3744 11.6449 26.0037C11.7697 25.7542 12.0193 25.3799 12.2688 25.1303L21.7516 11.9044L29.4875 0.924316H19.1313L5.90536 19.5155C2.28693 23.6331 0.0410156 28.9983 0.0410156 34.8626C0.0410156 47.4647 10.1477 57.6962 22.625 57.8209C22.7498 57.8209 22.8745 57.8209 22.9993 57.8209H47.0805C49.576 57.8209 51.5724 55.8246 51.5724 53.3291C51.5724 50.8336 49.576 48.8373 47.0805 48.8373H22.9993V48.7125Z" fill="#C7EA7D"/>
<path d="M41.0918 0.924316L33.1063 12.0291L23.374 25.879H33.6054L34.8532 24.1321L51.3232 0.924316H41.0918Z" fill="#C7EA7D"/>
<path d="M47.5799 41.1011C47.7047 41.1011 47.8295 41.1011 47.9542 41.1011C55.5654 41.725 61.4297 47.9637 61.4297 55.6996C61.4297 58.6942 60.5563 61.4392 58.9343 63.8099C58.8095 64.0594 58.56 64.4337 58.3104 64.6833L48.8276 77.9092L40.9669 88.8893H51.3231L64.6739 70.2981C68.2923 66.1806 70.5382 60.8153 70.5382 54.951C70.5382 42.3489 60.4316 32.1174 47.9542 31.9927C47.8295 31.9927 47.7047 31.9927 47.5799 31.9927H23.4987C21.0032 31.9927 19.0068 33.989 19.0068 36.4845C19.0068 38.98 21.0032 40.9764 23.4987 40.9764H47.5799V41.1011Z" fill="#C7EA7D"/>
<path d="M29.4873 88.8892L37.4728 77.7844L47.3298 63.9346H36.9737L35.7259 65.6814L19.2559 88.8892H29.4873Z" fill="#C7EA7D"/>
</svg>
