<?xml version="1.0" encoding="UTF-8"?>
<svg id="Calque_2" xmlns="http://www.w3.org/2000/svg" viewBox="0 0 48.19 45.39">
  <defs>
    <style>
      .cls-1 {
        fill: #30b7c0;
      }
    </style>
  </defs>
  <g id="Calque_1-2" data-name="Calque_1">
    <g>
      <path class="cls-1" d="M29.15,45.39H2.3c-1.27,0-2.3-1.03-2.3-2.3V15.16c0-1.27,1.03-2.3,2.3-2.3s2.3,1.03,2.3,2.3v25.64h22.25V12.94H10.64c-1.27,0-2.3-1.03-2.3-2.3s1.03-2.3,2.3-2.3h18.51c1.27,0,2.3,1.03,2.3,2.3v32.45c0,1.27-1.03,2.3-2.3,2.3Z"/>
      <path class="cls-1" d="M37.43,38.3c-1.27,0-2.3-1.03-2.3-2.3V4.6h-17.64c-1.27,0-2.3-1.03-2.3-2.3s1.03-2.3,2.3-2.3h19.94c1.27,0,2.3,1.03,2.3,2.3v33.71c0,1.27-1.03,2.3-2.3,2.3Z"/>
      <rect class="cls-1" x="43.59" width="4.6" height="33.77"/>
      <rect class="cls-1" y="8.34" width="4.6" height="32.54"/>
      <rect class="cls-1" x="35.13" y="19.15" width="4.6" height="19.15"/>
      <g>
        <path class="cls-1" d="M21.67,21.45h-11.89c-1.27,0-2.3-1.03-2.3-2.3s1.03-2.3,2.3-2.3h11.89c1.27,0,2.3,1.03,2.3,2.3s-1.03,2.3-2.3,2.3Z"/>
        <path class="cls-1" d="M21.67,29.16h-11.89c-1.27,0-2.3-1.03-2.3-2.3s1.03-2.3,2.3-2.3h11.89c1.27,0,2.3,1.03,2.3,2.3s-1.03,2.3-2.3,2.3Z"/>
        <path class="cls-1" d="M21.67,36.86h-11.89c-1.27,0-2.3-1.03-2.3-2.3s1.03-2.3,2.3-2.3h11.89c1.27,0,2.3,1.03,2.3,2.3s-1.03,2.3-2.3,2.3Z"/>
      </g>
    </g>
  </g>
</svg>